<svg xmlns="http://www.w3.org/2000/svg" xmlns:xlink="http://www.w3.org/1999/xlink" id="Layer_1" x="0px" y="0px" viewBox="0 0 46 46" style="enable-background:new 0 0 46 46;" xml:space="preserve"><style type="text/css">	.st0{fill-rule:evenodd;clip-rule:evenodd;fill:#575756;}	.st1{fill-rule:evenodd;clip-rule:evenodd;fill:#E84E24;}</style><g>	<path class="st0" d="M8.25,26.62H0V15.65h1.38l0,4.1h6.87V26.62z M6.88,25.25v-4.13h-5.5v4.13H6.88z"></path>	<rect x="9.61" y="19.75" class="st0" width="1.38" height="6.88"></rect>	<rect x="12.35" y="17" class="st0" width="1.37" height="9.63"></rect>	<polygon class="st0" points="16.47,26.62 15.09,26.62 15.09,19.75 23.34,19.75 23.34,26.62 21.97,26.62 21.97,21.12 16.47,21.12    "></polygon>	<path class="st0" d="M32.96,21.12h-8.25v-1.37h8.25V21.12z M32.96,23.87h-8.25V22.5h8.25V23.87z M32.96,26.62h-8.25v-1.37h8.25  V26.62z"></path>	<rect x="9.61" y="17.73" class="st1" width="1.38" height="1.16"></rect>	<path class="st0" d="M42.45,18.7c0,0.14-0.03,0.27-0.1,0.39c-0.07,0.12-0.16,0.21-0.28,0.28c-0.12,0.07-0.25,0.1-0.39,0.1  c-0.14,0-0.27-0.03-0.39-0.1c-0.12-0.07-0.21-0.16-0.28-0.28c-0.07-0.12-0.1-0.25-0.1-0.39c0-0.14,0.03-0.27,0.1-0.39  c0.07-0.12,0.16-0.21,0.28-0.28c0.12-0.07,0.25-0.1,0.39-0.1c0.14,0,0.27,0.03,0.39,0.1c0.12,0.07,0.22,0.16,0.28,0.28  C42.41,18.43,42.45,18.56,42.45,18.7z M42.3,18.7c0-0.17-0.06-0.32-0.18-0.44c-0.12-0.12-0.27-0.18-0.44-0.18  c-0.17,0-0.32,0.06-0.45,0.18c-0.12,0.12-0.18,0.27-0.18,0.44c0,0.17,0.06,0.32,0.18,0.44c0.12,0.12,0.27,0.18,0.45,0.18  c0.17,0,0.32-0.06,0.44-0.18C42.24,19.02,42.3,18.87,42.3,18.7z M41.32,18.29h0.37c0.11,0,0.18,0.02,0.23,0.06  c0.05,0.04,0.07,0.1,0.07,0.17c0,0.06-0.02,0.11-0.05,0.15c-0.04,0.04-0.09,0.07-0.17,0.09c0.03,0.01,0.06,0.03,0.07,0.04  c0.02,0.02,0.04,0.05,0.06,0.08c0,0,0.05,0.08,0.14,0.24h-0.24c-0.08-0.16-0.13-0.25-0.16-0.28c-0.03-0.03-0.05-0.05-0.08-0.05  c-0.01,0-0.02,0-0.03,0v0.33h-0.21V18.29z M41.52,18.64h0.09c0.06,0,0.1-0.01,0.12-0.03c0.03-0.02,0.04-0.04,0.04-0.07  c0-0.03-0.01-0.06-0.04-0.07c-0.02-0.02-0.06-0.03-0.12-0.03h-0.1V18.64z"></path>	<path class="st1" d="M39.15,23.72v-1.16h-1.38v1.16H39.15z M46,30.35h-1.81l-5.74-6.12l-2.2,2.39h-1.92l3.16-3.44l-6.95-7.54h1.82  l6.09,6.49l2.2-2.39h1.92l-3.16,3.44L46,30.35z"></path></g><g>	<path class="st0" d="M138.04,316.7H56.69V208.47H70.3l-0.05,40.44h67.78V316.7z M124.49,303.15v-40.67H70.25v40.67H124.49z"></path>	<rect x="151.49" y="248.92" class="st0" width="13.56" height="67.79"></rect>	<rect x="178.49" y="221.8" class="st0" width="13.56" height="94.9"></rect>	<polygon class="st0" points="219.07,316.7 205.5,316.7 205.5,248.92 286.84,248.92 286.84,316.7 273.3,316.7 273.3,262.47   219.07,262.47  "></polygon>	<path class="st0" d="M381.64,262.47H300.3v-13.56h81.34V262.47z M381.64,289.58H300.3v-13.56h81.34V289.58z M381.64,316.7H300.3  v-13.56h81.34V316.7z"></path>	<rect x="151.49" y="229.04" class="st1" width="13.56" height="11.4"></rect>	<path class="st0" d="M475.21,238.59c0,1.37-0.33,2.64-1.03,3.83c-0.68,1.18-1.62,2.11-2.8,2.8c-1.17,0.68-2.45,1.02-3.83,1.02  c-1.36,0-2.63-0.34-3.82-1.02c-1.19-0.68-2.12-1.61-2.79-2.8c-0.7-1.19-1.03-2.46-1.03-3.83c0-1.37,0.33-2.64,1.03-3.83  c0.67-1.18,1.6-2.12,2.79-2.79c1.19-0.68,2.46-1.03,3.82-1.03c1.38,0,2.66,0.34,3.83,1.03c1.18,0.67,2.13,1.61,2.8,2.79  C474.87,235.95,475.21,237.22,475.21,238.59z M473.72,238.59c0-1.71-0.6-3.15-1.8-4.36c-1.22-1.21-2.66-1.81-4.36-1.81  c-1.72,0-3.17,0.6-4.39,1.81c-1.2,1.2-1.8,2.65-1.8,4.36c0,1.7,0.6,3.15,1.8,4.36c1.21,1.21,2.67,1.81,4.39,1.81  c1.7,0,3.14-0.6,4.36-1.81C473.12,241.74,473.72,240.29,473.72,238.59z M464.08,234.49h3.65c1.05,0,1.79,0.21,2.26,0.62  c0.47,0.42,0.7,0.97,0.7,1.68c0,0.56-0.19,1.04-0.53,1.43c-0.36,0.4-0.91,0.7-1.68,0.87c0.31,0.13,0.55,0.25,0.7,0.39  c0.19,0.18,0.41,0.46,0.63,0.83c0.03,0.03,0.46,0.82,1.34,2.38h-2.41c-0.78-1.57-1.3-2.5-1.57-2.8c-0.27-0.31-0.53-0.45-0.8-0.45  c-0.05,0-0.15,0.01-0.25,0.02v3.23h-2.03V234.49z M466.11,237.96H467c0.58,0,1-0.1,1.23-0.29c0.25-0.19,0.36-0.44,0.36-0.74  c0-0.3-0.11-0.54-0.35-0.73c-0.22-0.2-0.61-0.29-1.17-0.29h-0.95V237.96z"></path>	<path class="st1" d="M442.65,288.08v-11.4h-13.56v11.4H442.65z M510.24,353.46h-17.85l-56.63-60.34l-21.69,23.58h-18.97  l31.18-33.89l-68.51-74.34h17.9l60.09,64.03l21.7-23.59h18.97l-31.19,33.9L510.24,353.46z"></path></g></svg>